<?xml version="1.0" encoding="utf-8"?>
<!-- Generator: Adobe Illustrator 19.2.0, SVG Export Plug-In . SVG Version: 6.00 Build 0)  -->
<svg version="1.1" id="Layer_1" xmlns="http://www.w3.org/2000/svg" xmlns:xlink="http://www.w3.org/1999/xlink" x="0px" y="0px"
	 width="980px" height="800px" viewBox="0 0 980 800" style="enable-background:new 0 0 980 800;" xml:space="preserve">
<style type="text/css">
	.st0{fill:#FEDD00;}
	.st1{fill:#231F20;}
	.st2{fill:#E01F26;}
	.st3{fill:#FFFFFF;}
	.st4{fill-rule:evenodd;clip-rule:evenodd;fill:#231F20;}
	.st5{fill:#3B5BA7;}
	.st6{fill:#25BCEE;}
	.st7{fill:#E1594B;}
	.st8{fill:#CC2127;}
	.st9{fill:#0274B3;}
	.st10{fill:#43984D;}
	.st11{fill:#BD2327;}
	.st12{fill:#0F5689;}
	.st13{fill-rule:evenodd;clip-rule:evenodd;}
	.st14{fill-rule:evenodd;clip-rule:evenodd;fill:#434343;}
</style>
<g id="guides">
</g>
<g id="logo">
	<g>
		<path class="st0" d="M70,135.9c-20.5,0-40.7-1.6-61.8-4.8l-1.6-0.2l-0.2-1.6c-5.7-38.6-5.7-77.8,0-116.5l0.2-1.6l1.6-0.2
			C29.3,7.9,49.5,6.3,70,6.3c20.5,0,40.7,1.6,61.8,4.8l1.6,0.2l0.2,1.6c5.7,38.6,5.7,77.8,0,116.5l-0.2,1.6l-1.6,0.2
			C110.7,134.3,90.5,135.9,70,135.9L70,135.9z"/>
		<path class="st1" d="M70,8.4c20.3,0,40.7,1.6,61.5,4.7c5.6,38.4,5.6,77.4,0,115.8c-20.9,3.2-41.2,4.7-61.5,4.7
			c-20.3,0-40.7-1.6-61.5-4.7c-5.6-38.4-5.6-77.4,0-115.8C29.3,10,49.7,8.4,70,8.4 M70,4.2C49.4,4.2,29.1,5.8,7.8,9L4.7,9.5
			l-0.5,3.1c-5.7,38.8-5.7,78.2,0,117.1l0.5,3.1l3.1,0.5c21.3,3.2,41.6,4.8,62.2,4.8s40.9-1.6,62.2-4.8l3.1-0.5l0.5-3.1
			c5.7-38.8,5.7-78.2,0-117.1l-0.5-3.1L132.2,9C110.9,5.8,90.6,4.2,70,4.2L70,4.2z"/>
	</g>
	<g>
		<ellipse class="st2" cx="70.1" cy="41.6" rx="39.4" ry="39.3"/>
		<g>
			<path class="st1" d="M28.2,41.5C28.2,18.6,46.8,0,69.8,0l0,0c23,0,41.6,18.6,41.6,41.5l0,0c0,22.9-18.6,41.5-41.6,41.5l0,0
				C46.8,83,28.2,64.4,28.2,41.5L28.2,41.5z M32.6,41.5c0,20.5,16.6,37,37.2,37.1l0,0c20.5,0,37.1-16.6,37.2-37.1l0,0
				c0-20.5-16.6-37-37.2-37.1l0,0C49.3,4.5,32.7,21,32.6,41.5L32.6,41.5z"/>
		</g>
		<g>
			<path class="st1" d="M24.5,71.6c-2.9,0-5.4-1.3-6.6-3.5c-0.7-1.3-1.6-4.1,0.8-7.7c1.6-2.4,3.2-4.9,4.8-7.3l1.4-2.1
				c2.3-3.5,4.6-7,6.9-10.5l1.9-2.9l3.1-4.8l3.1-4.8l0.3-0.5c1.7-2.7,4.3-6.7,9.5-6.7c1.7,0,7.3,0.6,7.3,8.5v1.3
				c1.1-1.5,2.1-3,3.2-4.6c2.2-3.1,5.6-5,8.8-5c2,0,3.9,0.8,5.3,2.1c1.1,1.1,2.5,3.2,2.4,6.8c0,5.4,0,10.8,0,16.1l0,6.3
				c0,0.4,0,0.7,0,1.1c0.1,2.3,0.3,6.1-2.9,8.6c-1.4,1.1-3.2,1.7-5.1,1.7c-1.5,0-3-0.4-4.2-1.2c-3.8-2.3-3.6-6.6-3.4-9.1
				c0-0.4,0-0.8,0-1.2v-0.4l-4.7,6.9c-0.9,1.3-3.2,4.7-7.2,4.9c-0.2,0-0.3,0-0.5,0c-3.7,0-6.7-2.8-7.2-6.5c-0.1-1.1-0.2-2.3-0.2-3.4
				l-8.8,13.4C30.9,69.9,27.8,71.6,24.5,71.6L24.5,71.6z"/>
			<path class="st3" d="M49.8,24.2c3.1,0,3.7,2.3,3.7,4.9c0,4.3,0,8.6,0,12.8c3.2-4.7,6.5-9.4,9.8-14c3.4-4.7,10-5,9.9,1.9
				c-0.1,7.5,0,15,0,22.5c0,2.3,0.6,5.3-1.4,6.8c-1.4,1.1-3.6,1.3-5.1,0.3c-2.4-1.5-1.7-4.8-1.7-7.2c0-4,0-8.1,0-12.1
				c-3.8,5.5-7.5,11.1-11.3,16.6c-1.1,1.6-2.4,3.2-4.5,3.4c-2,0.1-3.6-1.3-3.8-3.3c-0.6-5,0-10.3,0-15.3
				c-5.2,7.9-10.4,15.8-15.6,23.8c-3.1,4.7-11.8,3-7.9-3c2.1-3.2,4.1-6.3,6.2-9.5c2.9-4.5,5.9-9,8.8-13.4c2.1-3.2,4.2-6.4,6.3-9.6
				C44.7,27.3,46.4,24.2,49.8,24.2"/>
		</g>
		<g>
			<path class="st1" d="M79.8,75.8c-2.3,0-4.5-1.2-5.8-3.3c-1.4-2.1-1.6-4.8-0.6-7.1c1-2.2,2.2-4.3,3.3-6.1
				c1.7-2.9,5.6-9.8,6.8-12.3l-1.5-5.4l-4.1-14.9c-0.5-1.9,0.6-3.8,2.5-4.4l6.9-2c0.3-0.1,0.7-0.1,1-0.1c0.6,0,1.3,0.2,1.8,0.5
				c0.9,0.5,1.5,1.3,1.7,2.3l1.3,5.2c1.7-3.8,3.4-7.6,5.2-11.5c0.3-0.6,0.5-1.2,0.8-1.8c0.8-1.9,1.6-3.8,2.8-5.6
				c1.3-2,3.3-3.2,5.6-3.2c2.3,0,4.5,1.2,5.9,3.1c1.4,1.9,1.8,4.3,1.1,6.5c0,0.1-0.1,0.3-0.1,0.4l-9.2,20.4c-1.9,4.1-4,8.2-6.2,12.7
				c-0.3,0.5-0.7,1.3-1.2,2.3c-5.8,11.5-10.2,19.7-12.7,22.2C83.4,75,81.6,75.8,79.8,75.8L79.8,75.8z"/>
			<path class="st3" d="M101.6,35c-2,4.2-4,8.4-6.1,12.5c-2,3.8-10.1,20.5-13.2,23.6c-3,3-7-0.8-5.5-4.3c0.9-2,2-3.9,3.1-5.7
				c0.4-0.7,7.7-13.2,7.4-14c-2-7.1-4-14.3-5.9-21.4l6.9-2l3.8,15.5c3.2-7,6.3-14.1,9.5-21c1.1-2.3,2-4.8,3.3-7
				c2.3-3.6,7.3-0.2,6.1,3.4L101.6,35"/>
		</g>
	</g>
	<g>
		<path class="st1" d="M24.1,103.6h-5.9v9.5h-5.4V86.4h11.7c5.1,0,9.2,2.8,9.2,8.5C33.8,101,29.7,103.6,24.1,103.6z M24.4,91.5h-6.2
			v6.9h6.2c2.5,0,3.8-1.1,3.8-3.5C28.3,92.6,26.8,91.5,24.4,91.5z"/>
		<path class="st1" d="M37,113.1V86.4h5.4v21.4h13.4v5.3H37z"/>
		<path class="st1" d="M76.6,113.1l-2.1-5.9h-9.8l-2.1,5.9h-5.7l10.3-26.7h5.2l10.2,26.7H76.6z M70.9,97.2c-0.5-1.6-1.1-3.2-1.3-4.2
			c-0.3,1-0.8,2.6-1.3,4.2l-1.7,4.8h6.1L70.9,97.2z"/>
		<path class="st1" d="M99.9,94.1c-1-1.8-2.5-2.9-4.9-2.9c-4,0-6.3,3.5-6.3,8.5c0,4.8,2.3,8.5,6.4,8.5c2.4,0,3.8-1,5.2-3.4l4.5,2.7
			c-1.8,3.8-5.1,6-9.9,6c-7,0-11.7-5.3-11.7-13.8c0-8.1,4.9-13.8,11.9-13.8c5.1,0,8.1,2.4,9.8,5.9L99.9,94.1z"/>
		<path class="st1" d="M108.3,113.1V86.4h18.6v5.2h-13.2v4.6h7.7v5.2h-7.7v6.4h13.8v5.2H108.3z"/>
	</g>
	<g>
		<path class="st2" d="M16.8,119.5h-2.5l-0.1,0.7h1.5l-0.2,1.2h-1.5l-0.2,0.9h2.5l-0.2,1.2h-3.9l0.9-5H17L16.8,119.5z"/>
		<path class="st2" d="M21.1,120.2c-0.1-0.4-0.3-0.8-0.8-0.8c-0.7,0-1,1-1,1.8c0,0.6,0.2,1,0.7,1c0.5,0,0.8-0.4,0.9-0.7l1.1,0.6
			c-0.3,0.5-0.9,1.3-2.1,1.3c-1.3,0-2.1-0.8-2.1-2.1c0-1.6,1-3.1,2.6-3.1c1.2,0,1.8,0.5,2,1.5L21.1,120.2z"/>
		<path class="st2" d="M25.6,123.5c-1.4,0-2.1-0.7-2.1-2.1c0-1.7,1.1-3.1,2.6-3.1c1.4,0,2.1,0.7,2.1,2.1
			C28.2,122.1,27.1,123.5,25.6,123.5z M26,119.5c-0.7,0-1.1,0.9-1.1,1.8c0,0.7,0.3,1,0.8,1c0.7,0,1.1-0.9,1.1-1.8
			C26.7,119.8,26.5,119.5,26,119.5z"/>
		<path class="st2" d="M33.7,123.4h-1.1l-0.9-1.7c-0.2-0.3-0.5-1-0.6-1.2c0,0.2-0.1,0.9-0.2,1.3l-0.3,1.5h-1.3l0.9-5h1.2l0.8,1.5
			c0.2,0.3,0.5,1,0.6,1.2c0-0.2,0.1-0.9,0.2-1.3l0.2-1.4h1.3L33.7,123.4z"/>
		<path class="st2" d="M37.7,123.5c-1.4,0-2.1-0.7-2.1-2.1c0-1.7,1.1-3.1,2.6-3.1c1.4,0,2.1,0.7,2.1,2.1
			C40.3,122.1,39.3,123.5,37.7,123.5z M38.1,119.5c-0.7,0-1.1,0.9-1.1,1.8c0,0.7,0.3,1,0.8,1c0.7,0,1.1-0.9,1.1-1.8
			C38.9,119.8,38.6,119.5,38.1,119.5z"/>
		<path class="st2" d="M46.4,123.4h-1.3l0.2-1.2c0.1-0.5,0.2-1,0.3-1.3c-0.2,0.3-0.5,1-0.8,1.3l-0.9,1.4l-0.4-1.4
			c-0.1-0.4-0.3-1-0.3-1.4c-0.1,0.4-0.1,0.9-0.2,1.4l-0.2,1.2h-1.3l0.9-5h1.3l0.4,1.3c0.2,0.7,0.3,1.3,0.4,1.5
			c0.1-0.3,0.5-0.8,0.9-1.5l0.8-1.3h1.3L46.4,123.4z"/>
		<path class="st2" d="M51.4,121.6l-0.3,1.8h-1.4l0.3-1.9l-1.3-3.2h1.6l0.3,0.8c0.2,0.5,0.3,1.1,0.3,1.4c0.1-0.3,0.5-0.9,0.8-1.4
			l0.5-0.8h1.6L51.4,121.6z"/>
		<path class="st2" d="M61.9,119.5h-2.5l-0.1,0.7h1.5l-0.2,1.2h-1.5l-0.2,0.9h2.5l-0.2,1.2h-3.9l0.9-5h3.8L61.9,119.5z"/>
		<path class="st2" d="M66.2,120.8l1.2,2.6h-1.6l-0.2-0.6c-0.1-0.3-0.2-0.7-0.3-0.9c-0.2,0.3-0.4,0.6-0.7,0.9l-0.4,0.6h-1.6l2.1-2.6
			l-1.2-2.5h1.6l0.2,0.5c0.1,0.3,0.3,0.7,0.3,0.9c0.2-0.3,0.4-0.6,0.6-0.9l0.4-0.5h1.6L66.2,120.8z"/>
		<path class="st2" d="M73.4,119.6H72l-0.7,3.8h-1.4l0.7-3.8h-1.4l0.2-1.2h4.2L73.4,119.6z"/>
		<path class="st2" d="M78.8,119.5h-2.5l-0.1,0.7h1.5l-0.2,1.2H76l-0.2,0.9h2.5l-0.2,1.2h-3.9l0.9-5H79L78.8,119.5z"/>
		<path class="st2" d="M84.2,123.4h-1.1l-0.9-1.7c-0.2-0.3-0.5-1-0.6-1.2c0,0.2-0.1,0.9-0.2,1.3l-0.3,1.5h-1.3l0.9-5h1.2l0.8,1.5
			c0.2,0.3,0.5,1,0.6,1.2c0-0.2,0.1-0.9,0.2-1.3l0.2-1.4h1.3L84.2,123.4z"/>
		<path class="st2" d="M88,123.4h-2l0.9-5h1.5c1.7,0,2.5,0.6,2.5,2C90.8,122.1,90,123.4,88,123.4z M88.2,119.5h-0.2l-0.5,2.7h0.5
			c0.8,0,1.3-0.6,1.3-1.7C89.4,119.9,89.1,119.5,88.2,119.5z"/>
		<path class="st2" d="M96.4,119.5h-2.5l-0.1,0.7h1.5l-0.2,1.2h-1.5l-0.2,0.9H96l-0.2,1.2h-3.9l0.9-5h3.8L96.4,119.5z"/>
		<path class="st2" d="M99.4,123.4h-2l0.9-5h1.5c1.7,0,2.5,0.6,2.5,2C102.3,122.1,101.4,123.4,99.4,123.4z M99.7,119.5h-0.2
			l-0.5,2.7h0.5c0.8,0,1.3-0.6,1.3-1.7C100.8,119.9,100.5,119.5,99.7,119.5z"/>
		<path class="st2" d="M110.3,120c-0.3-0.3-0.9-0.6-1.4-0.6c-0.3,0-0.4,0.1-0.4,0.3c0,0.2,0.1,0.3,0.7,0.5c1.2,0.4,1.6,0.8,1.6,1.5
			c0,1.2-0.8,1.7-2.1,1.7c-1,0-1.9-0.4-2.3-0.8l0.9-1c0.3,0.3,0.9,0.6,1.6,0.6c0.3,0,0.5-0.1,0.5-0.3c0-0.2-0.1-0.3-0.8-0.5
			c-1.1-0.4-1.6-0.8-1.6-1.5c0-1.1,0.9-1.7,2.1-1.7c0.9,0,1.7,0.4,2.1,0.7L110.3,120z"/>
		<path class="st2" d="M116.5,119.6h-1.4l-0.7,3.8H113l0.7-3.8h-1.4l0.2-1.2h4.2L116.5,119.6z"/>
		<path class="st2" d="M120,123.4l-0.1-0.9h-1.5l-0.4,0.9h-1.5l2.7-5h1.4l0.9,5H120z M119.7,121.1c-0.1-0.6-0.1-0.9-0.1-1.3
			c-0.1,0.3-0.2,0.6-0.5,1.3l-0.2,0.3h0.8L119.7,121.1z"/>
		<path class="st2" d="M125.3,121.6l-0.3,1.8h-1.4l0.3-1.9l-1.3-3.2h1.6l0.3,0.8c0.2,0.5,0.3,1.1,0.3,1.4c0.1-0.3,0.5-0.9,0.8-1.4
			l0.5-0.8h1.6L125.3,121.6z"/>
	</g>
	<g>
		<path class="st2" d="M128.3,119.1c0.1,0,0.1,0.1,0.2,0.1c0.1,0,0.2-0.1,0.2-0.2c0-0.1-0.1-0.1-0.2-0.2c-0.2-0.1-0.3-0.1-0.3-0.3
			c0-0.1,0.1-0.3,0.3-0.3c0.1,0,0.2,0,0.2,0l0,0.1c0,0-0.1,0-0.2,0c-0.1,0-0.2,0.1-0.2,0.1c0,0.1,0.1,0.1,0.2,0.2
			c0.2,0.1,0.2,0.1,0.2,0.3c0,0.1-0.1,0.3-0.3,0.3c-0.1,0-0.2,0-0.2-0.1L128.3,119.1z"/>
		<path class="st2" d="M129.9,118.8c0-0.1,0-0.3,0-0.4h0c0,0.1-0.1,0.2-0.1,0.4l-0.2,0.5h-0.1l-0.2-0.5c0-0.1-0.1-0.3-0.1-0.4h0
			c0,0.1,0,0.3,0,0.4l0,0.4H129l0.1-1h0.2l0.2,0.5c0,0.1,0.1,0.2,0.1,0.3h0c0-0.1,0.1-0.2,0.1-0.3l0.2-0.5h0.2l0.1,1h-0.1
			L129.9,118.8z"/>
	</g>
	<path class="st4" d="M129.3,86.4c0.2,0,0.4,0.1,0.6,0.2c0.2,0.1,0.3,0.3,0.5,0.5c0.1,0.2,0.2,0.4,0.2,0.6c0,0.2-0.1,0.4-0.2,0.6
		c-0.1,0.2-0.3,0.3-0.5,0.5c-0.2,0.1-0.4,0.2-0.6,0.2c-0.2,0-0.4-0.1-0.6-0.2c-0.2-0.1-0.3-0.3-0.5-0.5c-0.1-0.2-0.2-0.4-0.2-0.6
		c0-0.2,0.1-0.4,0.2-0.6c0.1-0.2,0.3-0.3,0.5-0.5C128.9,86.4,129.1,86.4,129.3,86.4L129.3,86.4z M129.3,86.6c-0.2,0-0.3,0-0.5,0.1
		c-0.2,0.1-0.3,0.2-0.4,0.4c-0.1,0.2-0.1,0.3-0.1,0.5c0,0.2,0,0.3,0.1,0.5c0.1,0.2,0.2,0.3,0.4,0.4c0.2,0.1,0.3,0.1,0.5,0.1
		c0.2,0,0.3,0,0.5-0.1c0.2-0.1,0.3-0.2,0.4-0.4c0.1-0.2,0.1-0.3,0.1-0.5c0-0.2,0-0.3-0.1-0.5c-0.1-0.2-0.2-0.3-0.4-0.4
		C129.6,86.6,129.5,86.6,129.3,86.6L129.3,86.6z M128.8,88.3v-1.3h0.5c0.2,0,0.3,0,0.3,0c0.1,0,0.1,0.1,0.2,0.1
		c0,0.1,0.1,0.1,0.1,0.2c0,0.1,0,0.2-0.1,0.3c-0.1,0.1-0.2,0.1-0.3,0.1c0,0,0.1,0,0.1,0.1c0.1,0.1,0.1,0.1,0.2,0.3l0.2,0.3h-0.3
		l-0.1-0.2c-0.1-0.2-0.2-0.3-0.2-0.3c0,0-0.1,0-0.2,0H129v0.6H128.8L128.8,88.3z M129,87.5h0.3c0.1,0,0.2,0,0.3-0.1
		c0,0,0.1-0.1,0.1-0.1c0,0,0-0.1,0-0.1c0,0-0.1-0.1-0.1-0.1c0,0-0.1,0-0.2,0H129V87.5L129,87.5z"/>
</g>
<g id="socials">
	<g id="normal">
		<path id="facebook" class="st3" d="M184,12c0,3.3-1.2,6.1-3.5,8.5c-2.3,2.3-5.2,3.5-8.5,3.5c-3.3,0-6.1-1.2-8.5-3.5
			c-2.3-2.3-3.5-5.2-3.5-8.5c0-3.3,1.2-6.1,3.5-8.5c2.3-2.3,5.2-3.5,8.5-3.5c3.3,0,6.1,1.2,8.5,3.5C182.8,5.9,184,8.7,184,12z
			 M175.4,9.5h-2.2V8.3c0-0.4,0.1-0.6,0.2-0.8c0.1-0.2,0.4-0.2,0.8-0.2h1.2V4.8h-2c-1.1,0-1.9,0.3-2.3,0.8c-0.4,0.5-0.6,1.4-0.6,2.5
			v1.5h-1.8V12h1.8v7.2h2.7V12h2L175.4,9.5z"/>
		<path id="twitter" class="st3" d="M224,12c0,3.3-1.2,6.1-3.5,8.5c-2.3,2.3-5.2,3.5-8.5,3.5c-3.3,0-6.1-1.2-8.5-3.5
			c-2.3-2.3-3.5-5.2-3.5-8.5c0-3.3,1.2-6.1,3.5-8.5c2.3-2.3,5.2-3.5,8.5-3.5c3.3,0,6.1,1.2,8.5,3.5C222.8,5.9,224,8.7,224,12z
			 M219.5,7.8c-0.6,0.3-1.1,0.4-1.7,0.5c0.6-0.4,1-0.9,1.3-1.6c-0.6,0.3-1.2,0.6-1.9,0.7c-0.6-0.6-1.3-0.9-2.2-0.9
			c-0.8,0-1.5,0.3-2.1,0.9c-0.6,0.6-0.9,1.3-0.9,2.1c0,0.3,0,0.5,0.1,0.7c-2.5-0.1-4.5-1.2-6.1-3.1c-0.3,0.5-0.4,1-0.4,1.5
			c0,1,0.5,1.8,1.4,2.4c-0.5,0-1-0.1-1.4-0.4v0c0,0.7,0.2,1.3,0.7,1.9c0.5,0.5,1,0.9,1.7,1c-0.3,0.1-0.5,0.1-0.8,0.1
			c-0.2,0-0.4,0-0.6,0c0.2,0.6,0.5,1.1,1,1.5c0.5,0.4,1.1,0.6,1.7,0.6c-1.1,0.8-2.3,1.3-3.7,1.3c-0.3,0-0.5,0-0.7,0
			c1.4,0.9,2.9,1.3,4.5,1.3c2.6,0,4.6-0.9,6.1-2.6c1.5-1.7,2.3-3.7,2.3-5.8c0-0.1,0-0.2,0-0.4C218.5,8.9,219,8.4,219.5,7.8
			L219.5,7.8z"/>
		<path id="google" class="st3" d="M260.5,3.5C258.1,1.2,255.3,0,252,0s-6.1,1.2-8.5,3.5S240,8.7,240,12c0,3.3,1.2,6.1,3.5,8.5
			c2.3,2.3,5.2,3.5,8.5,3.5s6.1-1.2,8.5-3.5c2.3-2.3,3.5-5.2,3.5-8.5C264,8.7,262.8,5.9,260.5,3.5z M253.1,15.4
			c-1.3,1.9-4.1,2.5-6.2,1.6c-2.1-0.8-3.6-3-3.4-5.3c0-2.8,2.6-5.2,5.4-5.1c1.3-0.1,2.6,0.5,3.6,1.3c-0.4,0.5-0.9,1-1.4,1.4
			c-1.2-0.9-3-1.1-4.2-0.1c-1.8,1.2-1.8,4.1-0.1,5.4c1.6,1.5,4.8,0.8,5.2-1.5c-1,0-2.1,0-3.1,0c0-0.6,0-1.2,0-1.8c1.7,0,3.5,0,5.2,0
			C254.2,12.7,254,14.2,253.1,15.4z M259,12.8c0,0.5,0,1,0,1.5c-0.5,0-1,0-1.5,0c0-0.5,0-1,0-1.5c-0.5,0-1,0-1.5,0c0-0.5,0-1,0-1.5
			c0.5,0,1,0,1.5,0c0-0.5,0-1,0-1.5c0.5,0,1,0,1.5,0c0,0.5,0,1,0,1.5c0.5,0,1,0,1.5,0c0,0.5,0,1,0,1.5C260,12.8,259.5,12.8,259,12.8
			z"/>
		<path id="youtube" class="st3" d="M304,12c0,3.3-1.2,6.1-3.5,8.5c-2.3,2.3-5.2,3.5-8.5,3.5c-3.3,0-6.1-1.2-8.5-3.5
			c-2.3-2.3-3.5-5.2-3.5-8.5c0-3.3,1.2-6.1,3.5-8.5c2.3-2.3,5.2-3.5,8.5-3.5c3.3,0,6.1,1.2,8.5,3.5C302.8,5.9,304,8.7,304,12z
			 M299.4,9.2c0-0.6-0.2-1.1-0.5-1.6c-0.3-0.5-0.8-0.7-1.3-0.8c-4.1-0.2-7.7-0.2-11,0c-0.5,0.1-0.9,0.4-1.3,0.9
			c-0.4,0.5-0.6,1-0.6,1.6c-0.2,1.8-0.2,3.6,0,5.4c0,0.6,0.2,1.1,0.6,1.6c0.4,0.5,0.8,0.8,1.3,0.9c4,0.3,7.6,0.3,11,0
			c0.5-0.1,0.9-0.4,1.3-0.9c0.4-0.5,0.6-1,0.6-1.6C299.5,12.8,299.5,11,299.4,9.2L299.4,9.2z M290.5,9l4.5,3l-4.5,3V9z"/>
		<path id="linkedin" class="st3" d="M344,12c0,3.3-1.2,6.1-3.5,8.5c-2.3,2.3-5.2,3.5-8.5,3.5c-3.3,0-6.1-1.2-8.5-3.5
			c-2.3-2.3-3.5-5.2-3.5-8.5c0-3.3,1.2-6.1,3.5-8.5c2.3-2.3,5.2-3.5,8.5-3.5c3.3,0,6.1,1.2,8.5,3.5C342.8,5.9,344,8.7,344,12z
			 M329,7.3h-3v10.5h3V7.3z M329,5.3c0-0.4-0.1-0.7-0.4-1c-0.3-0.3-0.6-0.4-1-0.4s-0.7,0.1-1,0.4c-0.3,0.3-0.4,0.6-0.4,1
			c0,0.4,0.1,0.7,0.4,1c0.3,0.3,0.6,0.4,1,0.4s0.7-0.1,1-0.4C328.9,6,329,5.7,329,5.3z M339.5,11.4c0-1.5-0.3-2.6-1-3.2
			c-0.6-0.6-1.3-0.9-2-0.9c-1.1,0-2.1,0.3-3,1v-1h-3v10.5h3v-6.5l0.1-0.3c0.1-0.2,0.2-0.4,0.6-0.7c0.3-0.2,0.7-0.3,1.1-0.3
			c0.8,0,1.2,0.4,1.2,1.3v6.5h3V11.4z"/>
		<path id="tripadvisor" class="st3" d="M372,0c-3.3,0-6.1,1.2-8.5,3.5c-2.3,2.3-3.5,5.2-3.5,8.5c0,3.3,1.2,6.1,3.5,8.5
			c2.3,2.3,5.2,3.5,8.5,3.5c3.3,0,6.1-1.2,8.5-3.5c2.3-2.3,3.5-5.2,3.5-8.5c0-3.3-1.2-6.1-3.5-8.5C378.1,1.2,375.3,0,372,0
			 M365.8,7.7c0.2-0.2,0.5-0.5,0.9-0.7c1.2-0.6,3-1,5.2-1c2.1,0,3.7,0.3,4.9,0.8c0.7,0.3,1.1,0.6,1.4,1l0.2,0.1h3.3
			c-0.3,0.3-0.6,0.9-0.9,1.6c0.8,0.9,1.1,2,1.1,3.2c0,1.4-0.5,2.6-1.5,3.6c-1,1-2.2,1.5-3.6,1.5c-0.8,0-1.5-0.2-2.2-0.5
			c-0.7-0.3-1.2-0.8-1.7-1.3l-1,1.7l-1.2-1.6c-0.5,0.6-1,1-1.7,1.3c-0.7,0.3-1.4,0.5-2.2,0.5c-1.4,0-2.6-0.5-3.5-1.5
			c-1-1-1.5-2.2-1.5-3.6c0-1.1,0.3-2.1,1-3c-0.3-0.8-0.6-1.4-0.9-1.8h3.5L365.8,7.7 M374.1,10c-0.8,0.8-1.2,1.7-1.2,2.9
			c0,1.1,0.4,2.1,1.2,2.9c0.8,0.8,1.8,1.2,2.9,1.2c1.1,0,2.1-0.4,2.9-1.2c0.8-0.8,1.2-1.8,1.2-2.9c0-1.1-0.4-2.1-1.2-2.9
			c-0.8-0.8-1.7-1.2-2.9-1.2C375.8,8.8,374.9,9.2,374.1,10 M374.5,12.8c0-0.7,0.2-1.2,0.7-1.7c0.5-0.5,1.1-0.7,1.7-0.7
			c0.7,0,1.2,0.2,1.7,0.7c0.5,0.5,0.7,1,0.7,1.7c0,0.7-0.2,1.2-0.7,1.7c-0.5,0.5-1.1,0.7-1.7,0.7c-0.7,0-1.2-0.2-1.7-0.7
			C374.8,14.1,374.5,13.5,374.5,12.8 M375.8,11.6c-0.3,0.3-0.5,0.7-0.5,1.2s0.2,0.9,0.5,1.2c0.3,0.3,0.7,0.5,1.2,0.5
			c0.5,0,0.9-0.2,1.2-0.5c0.3-0.3,0.5-0.7,0.5-1.2s-0.2-0.9-0.5-1.2c-0.3-0.3-0.7-0.5-1.2-0.5C376.5,11.2,376.1,11.3,375.8,11.6
			 M376.1,12.8c0-0.2,0.1-0.4,0.2-0.6c0.2-0.2,0.4-0.2,0.6-0.2c0.2,0,0.4,0.1,0.6,0.2c0.2,0.2,0.2,0.4,0.2,0.6
			c0,0.2-0.1,0.4-0.2,0.6c-0.2,0.2-0.4,0.2-0.6,0.2c-0.2,0-0.4-0.1-0.6-0.2C376.2,13.3,376.1,13.1,376.1,12.8 M364.2,10
			c-0.8,0.8-1.2,1.7-1.2,2.9c0,1.1,0.4,2.1,1.2,2.9c0.8,0.8,1.7,1.2,2.9,1.2c1.1,0,2.1-0.4,2.9-1.2c0.8-0.8,1.2-1.8,1.2-2.9
			c0-1.1-0.4-2.1-1.2-2.9c-0.8-0.8-1.7-1.2-2.9-1.2C365.9,8.8,365,9.2,364.2,10 M364.6,12.8c0-0.7,0.2-1.2,0.7-1.7
			c0.5-0.5,1-0.7,1.7-0.7c0.7,0,1.2,0.2,1.7,0.7c0.5,0.5,0.7,1,0.7,1.7c0,0.7-0.2,1.2-0.7,1.7c-0.5,0.5-1.1,0.7-1.7,0.7
			c-0.7,0-1.2-0.2-1.7-0.7C364.9,14.1,364.6,13.5,364.6,12.8 M368.7,12.8c0-0.5-0.2-0.9-0.5-1.2c-0.3-0.3-0.7-0.5-1.2-0.5
			c-0.5,0-0.9,0.2-1.2,0.5c-0.3,0.3-0.5,0.7-0.5,1.2c0,0.5,0.2,0.9,0.5,1.2c0.3,0.3,0.7,0.5,1.2,0.5c0.5,0,0.9-0.2,1.2-0.5
			C368.6,13.7,368.7,13.3,368.7,12.8 M366.5,12.3c0.2-0.2,0.3-0.2,0.6-0.2c0.2,0,0.4,0.1,0.6,0.2c0.2,0.2,0.2,0.4,0.2,0.6
			c0,0.2-0.1,0.4-0.2,0.6c-0.2,0.2-0.3,0.2-0.6,0.2c-0.2,0-0.4-0.1-0.6-0.2c-0.2-0.2-0.2-0.3-0.2-0.6
			C366.2,12.6,366.3,12.4,366.5,12.3 M367.7,8c0.5,0,1,0.1,1.4,0.3c1.4,0.5,2.3,1.6,2.9,3.4c0.6-1.7,1.5-2.8,2.9-3.4
			c0.6-0.2,1.1-0.3,1.7-0.3c-0.2-0.1-0.5-0.3-0.8-0.4c-1-0.5-2.2-0.7-3.6-0.7h-0.4c-1.4,0-2.6,0.2-3.6,0.7L367.6,8L367.7,8"/>
		<path id="pinterest" class="st3" d="M412,0c-6.6,0-12,5.4-12,12c0,6.6,5.4,12,12,12s12-5.4,12-12C424,5.4,418.6,0,412,0z
			 M418.4,10.2c0,0.8-0.1,1.7-0.4,2.5c-0.3,0.9-0.8,1.8-1.4,2.5c-0.7,0.7-1.6,1.2-2.6,1.3c-0.5,0.1-1.1,0.1-1.6-0.1
			c-0.5-0.2-1-0.4-1.3-0.8c-0.1-0.1-0.1-0.1-0.2-0.2c-0.1,0.2-0.1,0.4-0.2,0.7c-0.2,0.6-0.3,1.3-0.5,1.9c-0.5,1.8-1.8,3.1-1.8,3.1
			s-0.7-1.7-0.1-4c0.4-1.6,0.8-3.2,1.1-4.7c0,0,0-0.1,0-0.1c-0.2-0.4-0.3-0.9-0.3-1.3c0-0.6,0.1-1.1,0.4-1.6
			c0.2-0.4,0.6-0.8,1.1-0.9c0.5-0.1,0.9-0.1,1.3,0.3c0.3,0.2,0.4,0.6,0.4,0.9c0,0.4,0,0.8-0.1,1.2c-0.2,0.6-0.4,1.3-0.6,1.9
			c-0.1,0.3-0.2,0.5-0.2,0.8c0,0.7,0.5,1.3,1.2,1.5c0.7,0.1,1.2-0.1,1.7-0.5c0.5-0.4,0.8-0.9,1-1.5c0.3-0.6,0.4-1.3,0.5-2
			c0.1-0.5,0.1-0.9,0.1-1.4c-0.1-1.5-1-2.7-2.5-3.1c-1.2-0.4-2.5-0.3-3.7,0.3c-1.3,0.6-2,1.6-2.4,2.9c-0.2,0.6-0.2,1.1-0.1,1.7
			c0.1,0.5,0.3,0.9,0.6,1.3c0,0,0.1,0.1,0.1,0.1c0.1,0.1,0.1,0.2,0.1,0.3c-0.1,0.3-0.1,0.6-0.2,0.8c-0.1,0.2-0.3,0.3-0.5,0.2
			c-0.6-0.2-1-0.7-1.4-1.2c-0.3-0.5-0.5-1.1-0.5-1.7c-0.1-0.4-0.1-0.9,0-1.3c0.1-0.7,0.2-1.3,0.5-1.9c0.9-1.7,2.2-2.8,4.1-3.3
			c0.6-0.2,1.2-0.3,1.9-0.3c0.9,0,1.8,0.1,2.7,0.4c1.5,0.6,2.6,1.6,3.3,3.1C418.3,8.8,418.4,9.5,418.4,10.2z"/>
		<g id="instagram_1_">
			<path class="st3" d="M456.7,11.2c-0.3,0-1,0-1.3,0c0.6,2.5-1.5,4.2-3.1,4.2c-1,0-1.8-0.2-2.5-0.9c-1-0.9-1.3-2-1-3.3
				c-0.3,0-1,0-1.3,0c0,0.1,0,0.2,0,0.3c0,1.4,0,3.3,0,4.7c0,0.4,0.1,0.5,0.6,0.5c2.5,0,5.8,0,8.3,0c0.4,0,0.6-0.2,0.6-0.6
				c0-1.4,0-3.3,0-4.7C456.7,11.4,456.7,11.3,456.7,11.2z"/>
			<path class="st3" d="M451.7,14.5c1.7,0.2,2.8-1.3,2.8-2.5c0.1-1.2-1-2.5-2.2-2.6c-1.6-0.1-2.8,1.1-2.9,2.5
				C449.4,13.4,450.6,14.4,451.7,14.5z"/>
			<path class="st3" d="M455,9.4c0.4,0,0.8,0,1.2,0c0.3,0,0.4-0.2,0.4-0.5c0-0.2,0-0.4,0-0.6c0-0.2,0-0.4,0-0.6
				c0-0.3-0.2-0.5-0.5-0.5c-0.4,0-0.8,0-1.2,0c-0.3,0-0.5,0.2-0.5,0.5c0,0.4,0,0.8,0,1.2C454.6,9.2,454.8,9.4,455,9.4z"/>
			<path class="st3" d="M452,0c-6.6,0-12,5.4-12,12s5.4,12,12,12s12-5.4,12-12S458.6,0,452,0z M457.5,16.1c0,0.9-0.5,1.4-1.4,1.4
				c-2.8,0-5.6,0-8.3,0c-0.8,0-1.4-0.5-1.4-1.3c0-2.8,0-5.7,0-8.5c0-0.6,0.4-1,0.9-1.2c0.1,0,0.3,0,0.5,0c1.4,0,2.8,0,4.2,0
				c1.4,0,2.8,0,4.2,0c0.8,0,1.4,0.6,1.4,1.4C457.5,10.6,457.5,13.4,457.5,16.1z"/>
		</g>
	</g>
	<g id="hover">
		<path id="facebook_1_" class="st5" d="M184,52c0,3.3-1.2,6.1-3.5,8.5c-2.3,2.3-5.2,3.5-8.5,3.5c-3.3,0-6.1-1.2-8.5-3.5
			c-2.3-2.3-3.5-5.2-3.5-8.5c0-3.3,1.2-6.1,3.5-8.5c2.3-2.3,5.2-3.5,8.5-3.5c3.3,0,6.1,1.2,8.5,3.5C182.8,45.9,184,48.7,184,52z
			 M175.4,49.5h-2.2v-1.2c0-0.4,0.1-0.6,0.2-0.8c0.1-0.2,0.4-0.2,0.8-0.2h1.2v-2.5h-2c-1.1,0-1.9,0.3-2.3,0.8
			c-0.4,0.5-0.6,1.4-0.6,2.5v1.5h-1.8V52h1.8v7.2h2.7V52h2L175.4,49.5z"/>
		<path id="twitter_1_" class="st6" d="M224,52c0,3.3-1.2,6.1-3.5,8.5c-2.3,2.3-5.2,3.5-8.5,3.5c-3.3,0-6.1-1.2-8.5-3.5
			c-2.3-2.3-3.5-5.2-3.5-8.5c0-3.3,1.2-6.1,3.5-8.5c2.3-2.3,5.2-3.5,8.5-3.5c3.3,0,6.1,1.2,8.5,3.5C222.8,45.9,224,48.7,224,52z
			 M219.5,47.8c-0.6,0.3-1.1,0.4-1.7,0.5c0.6-0.4,1-0.9,1.3-1.6c-0.6,0.3-1.2,0.6-1.9,0.7c-0.6-0.6-1.3-0.9-2.2-0.9
			c-0.8,0-1.5,0.3-2.1,0.9c-0.6,0.6-0.9,1.3-0.9,2.1c0,0.3,0,0.5,0.1,0.7c-2.5-0.1-4.5-1.2-6.1-3.1c-0.3,0.5-0.4,1-0.4,1.5
			c0,1,0.5,1.8,1.4,2.4c-0.5,0-1-0.1-1.4-0.4v0c0,0.7,0.2,1.3,0.7,1.9c0.5,0.5,1,0.9,1.7,1c-0.3,0.1-0.5,0.1-0.8,0.1
			c-0.2,0-0.4,0-0.6,0c0.2,0.6,0.5,1.1,1,1.5c0.5,0.4,1.1,0.6,1.7,0.6c-1.1,0.8-2.3,1.3-3.7,1.3c-0.3,0-0.5,0-0.7,0
			c1.4,0.9,2.9,1.3,4.5,1.3c2.6,0,4.6-0.9,6.1-2.6c1.5-1.7,2.3-3.7,2.3-5.8c0-0.1,0-0.2,0-0.4C218.5,48.9,219,48.4,219.5,47.8
			L219.5,47.8z"/>
		<path id="google_1_" class="st7" d="M260.5,43.5c-2.3-2.3-5.2-3.5-8.5-3.5s-6.1,1.2-8.5,3.5S240,48.7,240,52
			c0,3.3,1.2,6.1,3.5,8.5c2.3,2.3,5.2,3.5,8.5,3.5s6.1-1.2,8.5-3.5c2.3-2.3,3.5-5.2,3.5-8.5C264,48.7,262.8,45.9,260.5,43.5z
			 M253.1,55.4c-1.3,1.9-4.1,2.5-6.2,1.6c-2.1-0.8-3.6-3-3.4-5.3c0-2.8,2.6-5.2,5.4-5.1c1.3-0.1,2.6,0.5,3.6,1.3
			c-0.4,0.5-0.9,1-1.4,1.4c-1.2-0.9-3-1.1-4.2-0.1c-1.8,1.2-1.8,4.1-0.1,5.4c1.6,1.5,4.8,0.8,5.2-1.5c-1,0-2.1,0-3.1,0
			c0-0.6,0-1.2,0-1.8c1.7,0,3.5,0,5.2,0C254.2,52.7,254,54.2,253.1,55.4z M259,52.8c0,0.5,0,1,0,1.5c-0.5,0-1,0-1.5,0
			c0-0.5,0-1,0-1.5c-0.5,0-1,0-1.5,0c0-0.5,0-1,0-1.5c0.5,0,1,0,1.5,0c0-0.5,0-1,0-1.5c0.5,0,1,0,1.5,0c0,0.5,0,1,0,1.5
			c0.5,0,1,0,1.5,0c0,0.5,0,1,0,1.5C260,52.8,259.5,52.8,259,52.8z"/>
		<path id="youtube_1_" class="st8" d="M304,52c0,3.3-1.2,6.1-3.5,8.5c-2.3,2.3-5.2,3.5-8.5,3.5c-3.3,0-6.1-1.2-8.5-3.5
			c-2.3-2.3-3.5-5.2-3.5-8.5c0-3.3,1.2-6.1,3.5-8.5c2.3-2.3,5.2-3.5,8.5-3.5c3.3,0,6.1,1.2,8.5,3.5C302.8,45.9,304,48.7,304,52z
			 M299.4,49.2c0-0.6-0.2-1.1-0.5-1.6c-0.3-0.5-0.8-0.7-1.3-0.8c-4.1-0.2-7.7-0.2-11,0c-0.5,0.1-0.9,0.4-1.3,0.9
			c-0.4,0.5-0.6,1-0.6,1.6c-0.2,1.8-0.2,3.6,0,5.4c0,0.6,0.2,1.1,0.6,1.6c0.4,0.5,0.8,0.8,1.3,0.9c4,0.3,7.6,0.3,11,0
			c0.5-0.1,0.9-0.4,1.3-0.9c0.4-0.5,0.6-1,0.6-1.6C299.5,52.8,299.5,51,299.4,49.2L299.4,49.2z M290.5,49l4.5,3l-4.5,3V49z"/>
		<path id="linkedin_1_" class="st9" d="M344,52c0,3.3-1.2,6.1-3.5,8.5c-2.3,2.3-5.2,3.5-8.5,3.5c-3.3,0-6.1-1.2-8.5-3.5
			c-2.3-2.3-3.5-5.2-3.5-8.5c0-3.3,1.2-6.1,3.5-8.5c2.3-2.3,5.2-3.5,8.5-3.5c3.3,0,6.1,1.2,8.5,3.5C342.8,45.9,344,48.7,344,52z
			 M329,47.3h-3v10.5h3V47.3z M329,45.3c0-0.4-0.1-0.7-0.4-1c-0.3-0.3-0.6-0.4-1-0.4s-0.7,0.1-1,0.4c-0.3,0.3-0.4,0.6-0.4,1
			c0,0.4,0.1,0.7,0.4,1c0.3,0.3,0.6,0.4,1,0.4s0.7-0.1,1-0.4C328.9,46,329,45.7,329,45.3z M339.5,51.4c0-1.5-0.3-2.6-1-3.2
			c-0.6-0.6-1.3-0.9-2-0.9c-1.1,0-2.1,0.3-3,1v-1h-3v10.5h3v-6.5l0.1-0.3c0.1-0.2,0.2-0.4,0.6-0.7c0.3-0.2,0.7-0.3,1.1-0.3
			c0.8,0,1.2,0.4,1.2,1.3v6.5h3V51.4z"/>
		<path id="tripadvisor_1_" class="st10" d="M372,40c-3.3,0-6.1,1.2-8.5,3.5c-2.3,2.3-3.5,5.2-3.5,8.5c0,3.3,1.2,6.1,3.5,8.5
			c2.3,2.3,5.2,3.5,8.5,3.5c3.3,0,6.1-1.2,8.5-3.5c2.3-2.3,3.5-5.2,3.5-8.5c0-3.3-1.2-6.1-3.5-8.5C378.1,41.2,375.3,40,372,40
			 M365.8,47.7c0.2-0.2,0.5-0.5,0.9-0.7c1.2-0.6,3-1,5.2-1c2.1,0,3.7,0.3,4.9,0.8c0.7,0.3,1.1,0.6,1.4,1l0.2,0.1h3.3
			c-0.3,0.3-0.6,0.9-0.9,1.6c0.8,0.9,1.1,2,1.1,3.2c0,1.4-0.5,2.6-1.5,3.6c-1,1-2.2,1.5-3.6,1.5c-0.8,0-1.5-0.2-2.2-0.5
			c-0.7-0.3-1.2-0.8-1.7-1.3l-1,1.7l-1.2-1.6c-0.5,0.6-1,1-1.7,1.3c-0.7,0.3-1.4,0.5-2.2,0.5c-1.4,0-2.6-0.5-3.5-1.5
			c-1-1-1.5-2.2-1.5-3.6c0-1.1,0.3-2.1,1-3c-0.3-0.8-0.6-1.4-0.9-1.8h3.5L365.8,47.7 M374.1,50c-0.8,0.8-1.2,1.7-1.2,2.9
			c0,1.1,0.4,2.1,1.2,2.9c0.8,0.8,1.8,1.2,2.9,1.2c1.1,0,2.1-0.4,2.9-1.2c0.8-0.8,1.2-1.8,1.2-2.9c0-1.1-0.4-2.1-1.2-2.9
			c-0.8-0.8-1.7-1.2-2.9-1.2C375.8,48.8,374.9,49.2,374.1,50 M374.5,52.8c0-0.7,0.2-1.2,0.7-1.7c0.5-0.5,1.1-0.7,1.7-0.7
			c0.7,0,1.2,0.2,1.7,0.7c0.5,0.5,0.7,1,0.7,1.7c0,0.7-0.2,1.2-0.7,1.7c-0.5,0.5-1.1,0.7-1.7,0.7c-0.7,0-1.2-0.2-1.7-0.7
			C374.8,54.1,374.5,53.5,374.5,52.8 M375.8,51.6c-0.3,0.3-0.5,0.7-0.5,1.2c0,0.5,0.2,0.9,0.5,1.2c0.3,0.3,0.7,0.5,1.2,0.5
			c0.5,0,0.9-0.2,1.2-0.5c0.3-0.3,0.5-0.7,0.5-1.2c0-0.5-0.2-0.9-0.5-1.2c-0.3-0.3-0.7-0.5-1.2-0.5
			C376.5,51.2,376.1,51.3,375.8,51.6 M376.1,52.8c0-0.2,0.1-0.4,0.2-0.6c0.2-0.2,0.4-0.2,0.6-0.2c0.2,0,0.4,0.1,0.6,0.2
			s0.2,0.4,0.2,0.6c0,0.2-0.1,0.4-0.2,0.6c-0.2,0.2-0.4,0.2-0.6,0.2c-0.2,0-0.4-0.1-0.6-0.2C376.2,53.3,376.1,53.1,376.1,52.8
			 M364.2,50c-0.8,0.8-1.2,1.7-1.2,2.9c0,1.1,0.4,2.1,1.2,2.9c0.8,0.8,1.7,1.2,2.9,1.2c1.1,0,2.1-0.4,2.9-1.2
			c0.8-0.8,1.2-1.8,1.2-2.9c0-1.1-0.4-2.1-1.2-2.9c-0.8-0.8-1.7-1.2-2.9-1.2C365.9,48.8,365,49.2,364.2,50 M364.6,52.8
			c0-0.7,0.2-1.2,0.7-1.7c0.5-0.5,1-0.7,1.7-0.7c0.7,0,1.2,0.2,1.7,0.7c0.5,0.5,0.7,1,0.7,1.7c0,0.7-0.2,1.2-0.7,1.7
			c-0.5,0.5-1.1,0.7-1.7,0.7c-0.7,0-1.2-0.2-1.7-0.7C364.9,54.1,364.6,53.5,364.6,52.8 M368.7,52.8c0-0.5-0.2-0.9-0.5-1.2
			c-0.3-0.3-0.7-0.5-1.2-0.5c-0.5,0-0.9,0.2-1.2,0.5c-0.3,0.3-0.5,0.7-0.5,1.2c0,0.5,0.2,0.9,0.5,1.2c0.3,0.3,0.7,0.5,1.2,0.5
			c0.5,0,0.9-0.2,1.2-0.5C368.6,53.7,368.7,53.3,368.7,52.8 M366.5,52.3c0.2-0.2,0.3-0.2,0.6-0.2c0.2,0,0.4,0.1,0.6,0.2
			c0.2,0.2,0.2,0.4,0.2,0.6c0,0.2-0.1,0.4-0.2,0.6c-0.2,0.2-0.3,0.2-0.6,0.2c-0.2,0-0.4-0.1-0.6-0.2c-0.2-0.2-0.2-0.3-0.2-0.6
			C366.2,52.6,366.3,52.4,366.5,52.3 M367.7,48c0.5,0,1,0.1,1.4,0.3c1.4,0.5,2.3,1.6,2.9,3.4c0.6-1.7,1.5-2.8,2.9-3.4
			c0.6-0.2,1.1-0.3,1.7-0.3c-0.2-0.1-0.5-0.3-0.8-0.4c-1-0.5-2.2-0.7-3.6-0.7h-0.4c-1.4,0-2.6,0.2-3.6,0.7l-0.7,0.5L367.7,48"/>
		<path id="pinterest_1_" class="st11" d="M412,40c-6.6,0-12,5.4-12,12c0,6.6,5.4,12,12,12s12-5.4,12-12C424,45.4,418.6,40,412,40z
			 M418.4,50.2c0,0.8-0.1,1.7-0.4,2.5c-0.3,0.9-0.8,1.8-1.4,2.5c-0.7,0.7-1.6,1.2-2.6,1.3c-0.5,0.1-1.1,0.1-1.6-0.1
			c-0.5-0.2-1-0.4-1.3-0.8c-0.1-0.1-0.1-0.1-0.2-0.2c-0.1,0.2-0.1,0.4-0.2,0.7c-0.2,0.6-0.3,1.3-0.5,1.9c-0.5,1.8-1.8,3.1-1.8,3.1
			s-0.7-1.7-0.1-4c0.4-1.6,0.8-3.2,1.1-4.7c0,0,0-0.1,0-0.1c-0.2-0.4-0.3-0.9-0.3-1.3c0-0.6,0.1-1.1,0.4-1.6
			c0.2-0.4,0.6-0.8,1.1-0.9c0.5-0.1,0.9-0.1,1.3,0.3c0.3,0.2,0.4,0.6,0.4,0.9c0,0.4,0,0.8-0.1,1.2c-0.2,0.6-0.4,1.3-0.6,1.9
			c-0.1,0.3-0.2,0.5-0.2,0.8c0,0.7,0.5,1.3,1.2,1.5c0.7,0.1,1.2-0.1,1.7-0.5c0.5-0.4,0.8-0.9,1-1.5c0.3-0.6,0.4-1.3,0.5-2
			c0.1-0.5,0.1-0.9,0.1-1.4c-0.1-1.5-1-2.7-2.5-3.1c-1.2-0.4-2.5-0.3-3.7,0.3c-1.3,0.6-2,1.6-2.4,2.9c-0.2,0.6-0.2,1.1-0.1,1.7
			c0.1,0.5,0.3,0.9,0.6,1.3c0,0,0.1,0.1,0.1,0.1c0.1,0.1,0.1,0.2,0.1,0.3c-0.1,0.3-0.1,0.6-0.2,0.8c-0.1,0.2-0.3,0.3-0.5,0.2
			c-0.6-0.2-1-0.7-1.4-1.2c-0.3-0.5-0.5-1.1-0.5-1.7c-0.1-0.4-0.1-0.9,0-1.3c0.1-0.7,0.2-1.3,0.5-1.9c0.9-1.7,2.2-2.8,4.1-3.3
			c0.6-0.2,1.2-0.3,1.9-0.3c0.9,0,1.8,0.1,2.7,0.4c1.5,0.6,2.6,1.6,3.3,3.1C418.3,48.8,418.4,49.5,418.4,50.2z"/>
		<g id="instagram">
			<path class="st12" d="M456.7,51.2c-0.3,0-1,0-1.3,0c0.6,2.5-1.5,4.2-3.1,4.2c-1,0-1.8-0.2-2.5-0.9c-1-0.9-1.3-2-1-3.3
				c-0.3,0-1,0-1.3,0c0,0.1,0,0.2,0,0.3c0,1.4,0,3.3,0,4.7c0,0.4,0.1,0.5,0.6,0.5c2.5,0,5.8,0,8.3,0c0.4,0,0.6-0.2,0.6-0.6
				c0-1.4,0-3.3,0-4.7C456.7,51.4,456.7,51.3,456.7,51.2z"/>
			<path class="st12" d="M451.7,54.5c1.7,0.2,2.8-1.3,2.8-2.5c0.1-1.2-1-2.5-2.2-2.6c-1.6-0.1-2.8,1.1-2.9,2.5
				C449.4,53.4,450.6,54.4,451.7,54.5z"/>
			<path class="st12" d="M455,49.4c0.4,0,0.8,0,1.2,0c0.3,0,0.4-0.2,0.4-0.5c0-0.2,0-0.4,0-0.6c0-0.2,0-0.4,0-0.6
				c0-0.3-0.2-0.5-0.5-0.5c-0.4,0-0.8,0-1.2,0c-0.3,0-0.5,0.2-0.5,0.5c0,0.4,0,0.8,0,1.2C454.6,49.2,454.8,49.4,455,49.4z"/>
			<path class="st12" d="M452,40c-6.6,0-12,5.4-12,12s5.4,12,12,12s12-5.4,12-12S458.6,40,452,40z M457.5,56.1
				c0,0.9-0.5,1.4-1.4,1.4c-2.8,0-5.6,0-8.3,0c-0.8,0-1.4-0.5-1.4-1.3c0-2.8,0-5.7,0-8.5c0-0.6,0.4-1,0.9-1.2c0.1,0,0.3,0,0.5,0
				c1.4,0,2.8,0,4.2,0c1.4,0,2.8,0,4.2,0c0.8,0,1.4,0.6,1.4,1.4C457.5,50.6,457.5,53.4,457.5,56.1z"/>
		</g>
	</g>
</g>
<path id="scroll_for_more" class="st3" d="M34,177c0,4.7-1.7,8.7-5,12c-3.3,3.3-7.3,5-12,5c-4.7,0-8.7-1.7-12-5c-3.3-3.3-5-7.3-5-12
	s1.7-8.7,5-12s7.3-5,12-5c4.7,0,8.7,1.7,12,5C32.3,168.3,34,172.3,34,177z M25.1,173.4c-0.5-0.5-1-0.5-1.6,0l-6.6,6.5l-6.6-6.5
	c-0.5-0.6-1-0.6-1.6,0c-0.5,0.5-0.5,1.1,0,1.6l7.4,7.4c0.2,0.2,0.4,0.4,0.8,0.4c0.3,0,0.6-0.1,0.8-0.4l7.4-7.4
	C25.7,174.4,25.7,173.9,25.1,173.4z"/>
<g id="datepicker_icon">
	<g id="normal_1_">
		<g>
			<path class="st13" d="M70,161v-1h-1v3c-0.7,0-1-0.3-1-1v-1h-5v1c0,0.7-0.3,1-1,1v-3h-1v1h-1v11h11v-11H70z M70,171h-9v-7h9V171z
				 M64,168h1v1h1v-1h1v1h1v-3h-1v1h-1v-1h-1v1h-1v-1h-1v3h1V168z"/>
		</g>
	</g>
	<g id="hover_1_">
		<g>
			<path class="st14" d="M100,161v-1h-1v3c-0.7,0-1-0.3-1-1v-1h-5v1c0,0.7-0.3,1-1,1v-3h-1v1h-1v11h11v-11H100z M100,171h-9v-7h9
				V171z M94,168h1v1h1v-1h1v1h1v-3h-1v1h-1v-1h-1v1h-1v-1h-1v3h1V168z"/>
		</g>
	</g>
</g>
<path id="read_more" class="st13" d="M179,84l-9.2,8.4L160,84l0,0.6l9.8,8.4l9.2-8.4L179,84z"/>
</svg>
