<?xml version="1.0" encoding="utf-8"?>
<!-- Generator: Adobe Illustrator 15.0.0, SVG Export Plug-In . SVG Version: 6.00 Build 0)  -->
<!DOCTYPE svg PUBLIC "-//W3C//DTD SVG 1.0//EN" "http://www.w3.org/TR/2001/REC-SVG-20010904/DTD/svg10.dtd">
<svg version="1.0" id="Layer_1" xmlns="http://www.w3.org/2000/svg" xmlns:xlink="http://www.w3.org/1999/xlink" x="0px" y="0px"
	 width="140.15px" height="138.1px" viewBox="0 0 140.15 138.1" enable-background="new 0 0 140.15 138.1" xml:space="preserve">
<g id="logo">
	<g>
		<path fill="#FEDD00" d="M70.075,135.9c-20.5,0-40.7-1.601-61.8-4.801l-1.6-0.199l-0.2-1.601c-5.7-38.6-5.7-77.8,0-116.5l0.2-1.6
			l1.6-0.2c21.1-3.1,41.3-4.7,61.8-4.7s40.7,1.6,61.8,4.8l1.601,0.2l0.199,1.6c5.7,38.6,5.7,77.8,0,116.5l-0.199,1.6l-1.601,0.2
			C110.775,134.3,90.575,135.9,70.075,135.9L70.075,135.9z"/>
		<path fill="#231F20" d="M70.075,8.4c20.3,0,40.7,1.6,61.5,4.7c5.6,38.4,5.6,77.4,0,115.8c-20.9,3.199-41.2,4.699-61.5,4.699
			s-40.7-1.6-61.5-4.699c-5.6-38.4-5.6-77.4,0-115.8C29.375,10,49.775,8.4,70.075,8.4 M70.075,4.2c-20.6,0-40.9,1.6-62.2,4.8
			l-3.1,0.5l-0.5,3.1c-5.7,38.8-5.7,78.2,0,117.1l0.5,3.1l3.1,0.5c21.3,3.2,41.6,4.8,62.2,4.8c20.6,0,40.9-1.6,62.2-4.8l3.1-0.5
			l0.5-3.1c5.7-38.8,5.7-78.2,0-117.1l-0.5-3.1l-3.1-0.5C110.976,5.8,90.675,4.2,70.075,4.2L70.075,4.2z"/>
	</g>
	<g>
		<ellipse fill="#E01F26" cx="70.175" cy="41.6" rx="39.4" ry="39.3"/>
		<g>
			<path fill="#231F20" d="M28.275,41.5c0-22.9,18.6-41.5,41.6-41.5l0,0c23,0,41.601,18.6,41.601,41.5l0,0
				c0,22.9-18.601,41.5-41.601,41.5l0,0C46.875,83,28.275,64.4,28.275,41.5L28.275,41.5z M32.675,41.5c0,20.5,16.6,37,37.2,37.1l0,0
				c20.5,0,37.101-16.6,37.2-37.1l0,0c0-20.5-16.6-37-37.2-37.1l0,0C49.375,4.5,32.775,21,32.675,41.5L32.675,41.5z"/>
		</g>
		<g>
			<path fill="#231F20" d="M24.575,71.6c-2.9,0-5.4-1.3-6.6-3.5c-0.7-1.3-1.6-4.1,0.8-7.7c1.6-2.4,3.2-4.9,4.8-7.3l1.4-2.1
				c2.3-3.5,4.6-7,6.9-10.5l1.9-2.9l3.1-4.8l3.1-4.8l0.3-0.5c1.7-2.7,4.3-6.7,9.5-6.7c1.7,0,7.3,0.6,7.3,8.5v1.3
				c1.1-1.5,2.1-3,3.2-4.6c2.2-3.1,5.6-5,8.8-5c2,0,3.9,0.8,5.3,2.1c1.101,1.1,2.5,3.2,2.4,6.8c0,5.4,0,10.8,0,16.1v6.3
				c0,0.4,0,0.7,0,1.1c0.1,2.3,0.3,6.1-2.9,8.6c-1.399,1.1-3.2,1.7-5.1,1.7c-1.5,0-3-0.4-4.2-1.2c-3.8-2.3-3.6-6.6-3.4-9.1
				c0-0.4,0-0.8,0-1.2v-0.4l-4.7,6.9c-0.9,1.3-3.2,4.7-7.2,4.9c-0.2,0-0.3,0-0.5,0c-3.7,0-6.7-2.8-7.2-6.5c-0.1-1.1-0.2-2.3-0.2-3.4
				l-8.8,13.4C30.975,69.9,27.875,71.6,24.575,71.6L24.575,71.6z"/>
			<path fill="#FFFFFF" d="M49.875,24.2c3.1,0,3.7,2.3,3.7,4.9c0,4.3,0,8.6,0,12.8c3.2-4.7,6.5-9.4,9.8-14c3.4-4.7,10-5,9.9,1.9
				c-0.101,7.5,0,15,0,22.5c0,2.3,0.6,5.3-1.4,6.8c-1.4,1.1-3.6,1.3-5.1,0.3c-2.4-1.5-1.7-4.8-1.7-7.2c0-4,0-8.1,0-12.1
				c-3.8,5.5-7.5,11.1-11.3,16.6c-1.1,1.6-2.4,3.2-4.5,3.4c-2,0.1-3.6-1.3-3.8-3.3c-0.6-5,0-10.3,0-15.3
				c-5.2,7.9-10.4,15.8-15.6,23.8c-3.1,4.7-11.8,3-7.9-3c2.1-3.2,4.1-6.3,6.2-9.5c2.9-4.5,5.9-9,8.8-13.4c2.1-3.2,4.2-6.4,6.3-9.6
				C44.775,27.3,46.475,24.2,49.875,24.2"/>
		</g>
		<g>
			<path fill="#231F20" d="M79.875,75.8c-2.3,0-4.5-1.2-5.8-3.3c-1.4-2.1-1.6-4.8-0.6-7.1c1-2.2,2.199-4.3,3.3-6.1
				c1.7-2.9,5.6-9.8,6.8-12.3l-1.5-5.4l-4.1-14.9c-0.5-1.9,0.6-3.8,2.5-4.4l6.899-2c0.3-0.1,0.7-0.1,1-0.1c0.601,0,1.3,0.2,1.8,0.5
				c0.9,0.5,1.5,1.3,1.7,2.3l1.3,5.2c1.7-3.8,3.4-7.6,5.2-11.5c0.3-0.6,0.5-1.2,0.8-1.8c0.801-1.9,1.601-3.8,2.801-5.6
				c1.3-2,3.3-3.2,5.6-3.2s4.5,1.2,5.9,3.1c1.399,1.9,1.8,4.3,1.1,6.5c0,0.1-0.1,0.3-0.1,0.4l-9.2,20.4c-1.9,4.1-4,8.2-6.2,12.7
				c-0.3,0.5-0.7,1.3-1.2,2.3c-5.8,11.5-10.2,19.7-12.7,22.2C83.476,75,81.675,75.8,79.875,75.8L79.875,75.8z"/>
			<path fill="#FFFFFF" d="M101.675,35c-2,4.2-4,8.4-6.1,12.5c-2,3.8-10.1,20.5-13.2,23.6c-3,3-7-0.8-5.5-4.3c0.9-2,2-3.9,3.101-5.7
				c0.399-0.7,7.699-13.2,7.399-14c-2-7.1-4-14.3-5.899-21.4l6.899-2l3.8,15.5c3.2-7,6.301-14.1,9.5-21c1.101-2.3,2-4.8,3.301-7
				c2.3-3.6,7.3-0.2,6.1,3.4L101.675,35"/>
		</g>
	</g>
	<g>
		<path fill="#231F20" d="M24.175,103.6h-5.9v9.5h-5.4V86.4h11.7c5.1,0,9.2,2.8,9.2,8.5C33.875,101,29.775,103.6,24.175,103.6z
			 M24.475,91.5h-6.2v6.9h6.2c2.5,0,3.8-1.101,3.8-3.5C28.375,92.6,26.875,91.5,24.475,91.5z"/>
		<path fill="#231F20" d="M37.075,113.1V86.4h5.4V107.8h13.4v5.3H37.075z"/>
		<path fill="#231F20" d="M76.675,113.1l-2.1-5.899h-9.8l-2.1,5.899h-5.7l10.3-26.699h5.2L82.675,113.1H76.675z M70.976,97.2
			c-0.5-1.601-1.101-3.2-1.3-4.2c-0.3,1-0.8,2.6-1.3,4.2l-1.7,4.8h6.1L70.976,97.2z"/>
		<path fill="#231F20" d="M99.976,94.1c-1-1.8-2.5-2.899-4.9-2.899c-4,0-6.3,3.5-6.3,8.5c0,4.8,2.3,8.5,6.399,8.5
			c2.4,0,3.801-1,5.2-3.4l4.5,2.7c-1.8,3.8-5.1,6-9.899,6c-7,0-11.7-5.3-11.7-13.8c0-8.101,4.899-13.8,11.899-13.8
			c5.101,0,8.101,2.399,9.801,5.899L99.976,94.1z"/>
		<path fill="#231F20" d="M108.375,113.1V86.4h18.601V91.6h-13.2V96.2h7.7v5.2h-7.7v6.399h13.8v5.2h-19.2V113.1z"/>
	</g>
	<g>
		<path fill="#E01F26" d="M16.875,119.5h-2.5l-0.1,0.7h1.5l-0.2,1.2h-1.5l-0.2,0.899h2.5l-0.2,1.2h-3.9l0.9-5h3.9L16.875,119.5z"/>
		<path fill="#E01F26" d="M21.175,120.2c-0.1-0.4-0.3-0.8-0.8-0.8c-0.7,0-1,1-1,1.8c0,0.6,0.2,1,0.7,1s0.8-0.4,0.9-0.7l1.1,0.6
			c-0.3,0.5-0.9,1.301-2.1,1.301c-1.3,0-2.1-0.801-2.1-2.101c0-1.6,1-3.1,2.6-3.1c1.2,0,1.8,0.5,2,1.5L21.175,120.2z"/>
		<path fill="#E01F26" d="M25.675,123.5c-1.4,0-2.1-0.7-2.1-2.1c0-1.7,1.1-3.101,2.6-3.101c1.4,0,2.1,0.7,2.1,2.101
			C28.275,122.1,27.175,123.5,25.675,123.5z M26.075,119.5c-0.7,0-1.1,0.9-1.1,1.8c0,0.7,0.3,1,0.8,1c0.7,0,1.1-0.899,1.1-1.8
			C26.775,119.8,26.575,119.5,26.075,119.5z"/>
		<path fill="#E01F26" d="M33.775,123.4h-1.1l-0.9-1.7c-0.2-0.3-0.5-1-0.6-1.2c0,0.2-0.1,0.9-0.2,1.3l-0.3,1.5h-1.3l0.9-5h1.2
			l0.8,1.5c0.2,0.3,0.5,1,0.6,1.2c0-0.2,0.1-0.9,0.2-1.3l0.2-1.4h1.3L33.775,123.4z"/>
		<path fill="#E01F26" d="M37.775,123.5c-1.4,0-2.1-0.7-2.1-2.1c0-1.7,1.1-3.101,2.6-3.101c1.4,0,2.1,0.7,2.1,2.101
			C40.375,122.1,39.375,123.5,37.775,123.5z M38.175,119.5c-0.7,0-1.1,0.9-1.1,1.8c0,0.7,0.3,1,0.8,1c0.7,0,1.1-0.899,1.1-1.8
			C38.975,119.8,38.675,119.5,38.175,119.5z"/>
		<path fill="#E01F26" d="M46.475,123.4h-1.3l0.2-1.2c0.1-0.5,0.2-1,0.3-1.3c-0.2,0.3-0.5,1-0.8,1.3l-0.9,1.399l-0.4-1.399
			c-0.1-0.4-0.3-1-0.3-1.4c-0.1,0.4-0.1,0.9-0.2,1.4l-0.2,1.2h-1.3l0.9-5h1.3l0.4,1.3c0.2,0.7,0.3,1.3,0.4,1.5
			c0.1-0.3,0.5-0.8,0.9-1.5l0.8-1.3h1.3L46.475,123.4z"/>
		<path fill="#E01F26" d="M51.475,121.6l-0.3,1.801h-1.4l0.3-1.9l-1.3-3.2h1.6l0.3,0.8c0.2,0.5,0.3,1.101,0.3,1.4
			c0.1-0.3,0.5-0.9,0.8-1.4l0.5-0.8h1.6L51.475,121.6z"/>
		<path fill="#E01F26" d="M61.975,119.5h-2.5l-0.1,0.7h1.5l-0.2,1.2h-1.5l-0.2,0.899h2.5l-0.2,1.2h-3.9l0.9-5h3.8L61.975,119.5z"/>
		<path fill="#E01F26" d="M66.275,120.8l1.2,2.601h-1.6l-0.2-0.601c-0.1-0.3-0.2-0.7-0.3-0.899c-0.2,0.3-0.4,0.6-0.7,0.899
			l-0.4,0.601h-1.6l2.1-2.601l-1.2-2.5h1.6l0.2,0.5c0.1,0.3,0.3,0.7,0.3,0.9c0.2-0.3,0.4-0.601,0.6-0.9l0.4-0.5h1.6L66.275,120.8z"
			/>
		<path fill="#E01F26" d="M73.476,119.6h-1.4l-0.7,3.801h-1.4l0.7-3.801h-1.399l0.2-1.199h4.2L73.476,119.6z"/>
		<path fill="#E01F26" d="M78.875,119.5h-2.5l-0.1,0.7h1.5l-0.2,1.2h-1.5l-0.2,0.899h2.5l-0.2,1.2h-3.899l0.899-5h3.9L78.875,119.5z
			"/>
		<path fill="#E01F26" d="M84.275,123.4h-1.101l-0.899-1.7c-0.2-0.3-0.5-1-0.601-1.2c0,0.2-0.1,0.9-0.199,1.3l-0.301,1.5h-1.3l0.9-5
			h1.2l0.8,1.5c0.2,0.3,0.5,1,0.6,1.2c0-0.2,0.101-0.9,0.2-1.3l0.2-1.4h1.3L84.275,123.4z"/>
		<path fill="#E01F26" d="M88.075,123.4h-2l0.9-5h1.5c1.699,0,2.5,0.6,2.5,2C90.875,122.1,90.075,123.4,88.075,123.4z M88.275,119.5
			h-0.2l-0.5,2.7h0.5c0.8,0,1.3-0.601,1.3-1.7C89.476,119.9,89.175,119.5,88.275,119.5z"/>
		<path fill="#E01F26" d="M96.476,119.5h-2.5l-0.101,0.7h1.5l-0.2,1.2h-1.5l-0.199,0.899h2.6l-0.2,1.2h-3.899l0.899-5h3.8
			L96.476,119.5z"/>
		<path fill="#E01F26" d="M99.476,123.4h-2l0.899-5h1.5c1.7,0,2.5,0.6,2.5,2C102.375,122.1,101.476,123.4,99.476,123.4z
			 M99.775,119.5h-0.2l-0.5,2.7h0.5c0.8,0,1.3-0.601,1.3-1.7C100.875,119.9,100.575,119.5,99.775,119.5z"/>
		<path fill="#E01F26" d="M110.375,120c-0.3-0.3-0.899-0.6-1.399-0.6c-0.301,0-0.4,0.1-0.4,0.3s0.1,0.3,0.7,0.5
			c1.2,0.399,1.6,0.8,1.6,1.5c0,1.2-0.8,1.7-2.1,1.7c-1,0-1.9-0.4-2.3-0.801l0.899-1c0.3,0.301,0.9,0.601,1.601,0.601
			c0.3,0,0.5-0.101,0.5-0.3c0-0.2-0.101-0.301-0.801-0.5c-1.1-0.4-1.6-0.801-1.6-1.5c0-1.101,0.9-1.7,2.1-1.7
			c0.9,0,1.7,0.399,2.101,0.7L110.375,120z"/>
		<path fill="#E01F26" d="M116.575,119.6h-1.4l-0.699,3.801h-1.4l0.7-3.801h-1.4l0.2-1.199h4.2L116.575,119.6z"/>
		<path fill="#E01F26" d="M120.075,123.4l-0.1-0.9h-1.5l-0.4,0.9h-1.5l2.7-5h1.399l0.9,5H120.075z M119.775,121.1
			c-0.101-0.6-0.101-0.899-0.101-1.3c-0.1,0.3-0.199,0.601-0.5,1.3l-0.199,0.301h0.8V121.1z"/>
		<path fill="#E01F26" d="M125.375,121.6l-0.3,1.801h-1.4l0.301-1.9l-1.301-3.2h1.601l0.3,0.8c0.2,0.5,0.3,1.101,0.3,1.4
			c0.101-0.3,0.5-0.9,0.8-1.4l0.5-0.8h1.601L125.375,121.6z"/>
	</g>
	<g>
		<path fill="#E01F26" d="M128.375,119.1c0.101,0,0.101,0.101,0.2,0.101s0.2-0.101,0.2-0.2s-0.101-0.1-0.2-0.2
			c-0.2-0.1-0.3-0.1-0.3-0.3c0-0.1,0.1-0.3,0.3-0.3c0.1,0,0.2,0,0.2,0v0.1c0,0-0.101,0-0.2,0s-0.2,0.101-0.2,0.101
			c0,0.1,0.101,0.1,0.2,0.199c0.2,0.101,0.2,0.101,0.2,0.301c0,0.1-0.101,0.3-0.3,0.3c-0.101,0-0.2,0-0.2-0.101H128.375z"/>
		<path fill="#E01F26" d="M129.976,118.8c0-0.1,0-0.3,0-0.399l0,0c0,0.1-0.101,0.199-0.101,0.399l-0.2,0.5h-0.1l-0.2-0.5
			c0-0.1-0.1-0.3-0.1-0.399l0,0c0,0.1,0,0.3,0,0.399v0.4h-0.2l0.1-1h0.2l0.2,0.5c0,0.1,0.1,0.2,0.1,0.3l0,0
			c0-0.1,0.101-0.2,0.101-0.3l0.2-0.5h0.199l0.101,1h-0.101L129.976,118.8z"/>
	</g>
	<path fill="#231F20" d="M129.375,86.4c0.2,0,0.4,0.1,0.601,0.199c0.199,0.101,0.3,0.301,0.5,0.5c0.1,0.2,0.199,0.4,0.199,0.601
		s-0.1,0.399-0.199,0.6c-0.101,0.2-0.301,0.3-0.5,0.5c-0.2,0.101-0.4,0.2-0.601,0.2s-0.399-0.1-0.6-0.2c-0.2-0.1-0.3-0.3-0.5-0.5
		c-0.101-0.2-0.2-0.399-0.2-0.6s0.1-0.4,0.2-0.601c0.1-0.199,0.3-0.3,0.5-0.5C128.976,86.4,129.175,86.4,129.375,86.4L129.375,86.4z
		 M129.375,86.6c-0.2,0-0.3,0-0.5,0.101c-0.2,0.1-0.3,0.2-0.399,0.399c-0.101,0.2-0.101,0.301-0.101,0.5c0,0.2,0,0.301,0.101,0.5
		c0.1,0.2,0.199,0.301,0.399,0.4s0.3,0.1,0.5,0.1s0.3,0,0.5-0.1s0.3-0.2,0.4-0.4c0.1-0.199,0.1-0.3,0.1-0.5c0-0.199,0-0.3-0.1-0.5
		c-0.101-0.199-0.2-0.3-0.4-0.399C129.675,86.6,129.575,86.6,129.375,86.6L129.375,86.6z M128.875,88.3V87h0.5c0.2,0,0.3,0,0.3,0
		c0.101,0,0.101,0.1,0.2,0.1c0,0.101,0.101,0.101,0.101,0.2c0,0.101,0,0.2-0.101,0.3c-0.1,0.101-0.2,0.101-0.3,0.101
		c0,0,0.1,0,0.1,0.1c0.101,0.101,0.101,0.101,0.2,0.3l0.2,0.301h-0.3l-0.101-0.2c-0.1-0.2-0.199-0.3-0.199-0.3s-0.101,0-0.2,0h-0.2
		v0.6h-0.2V88.3z M129.075,87.5h0.3c0.101,0,0.2,0,0.3-0.1l0.101-0.101v-0.1l-0.101-0.101c0,0-0.1,0-0.199,0h-0.4V87.5L129.075,87.5
		z"/>
</g>
</svg>
