<?xml version="1.0" encoding="iso-8859-1"?>
<!-- Generator: Adobe Illustrator 15.0.0, SVG Export Plug-In . SVG Version: 6.00 Build 0)  -->
<!DOCTYPE svg PUBLIC "-//W3C//DTD SVG 1.1//EN" "http://www.w3.org/Graphics/SVG/1.1/DTD/svg11.dtd">
<svg version="1.1" id="Layer_1" xmlns="http://www.w3.org/2000/svg" xmlns:xlink="http://www.w3.org/1999/xlink" x="0px" y="0px"
	 width="191.055px" height="91.015px" viewBox="0 0 191.055 91.015" style="enable-background:new 0 0 191.055 91.015;"
	 xml:space="preserve">
<g>
	<path d="M18.376,12.589l19.307,58.359l19.364-58.774c1.009-3.089,1.764-5.234,2.268-6.442c0.503-1.208,1.337-2.296,2.501-3.266
		c1.162-0.971,2.753-1.455,4.768-1.455c1.472,0,2.842,0.379,4.1,1.129c1.259,0.751,2.249,1.751,2.967,2.997
		c0.716,1.247,1.076,2.504,1.076,3.771c0,0.869-0.117,1.812-0.351,2.82c-0.23,1.01-0.521,1.998-0.871,2.97
		c-0.35,0.97-0.699,1.968-1.046,2.997L51.813,74.57c-0.735,2.178-1.473,4.245-2.208,6.205c-0.737,1.959-1.591,3.681-2.559,5.164
		c-0.969,1.483-2.258,2.701-3.867,3.651s-3.577,1.424-5.903,1.424c-2.325,0-4.293-0.465-5.902-1.394s-2.907-2.157-3.896-3.682
		c-0.988-1.522-1.852-3.255-2.587-5.193c-0.738-1.939-1.476-3.998-2.21-6.176L2.384,18.169c-0.349-1.029-0.708-2.037-1.076-3.026
		c-0.37-0.989-0.678-2.058-0.93-3.206C0.125,10.788,0,9.818,0,9.025c0-2.018,0.793-3.857,2.384-5.521
		C3.973,1.842,5.97,1.011,8.375,1.011c2.944,0,5.029,0.921,6.25,2.761C15.847,5.612,17.097,8.551,18.376,12.589z"/>
	<path d="M189.1,15.052c-1.304-3.352-3.21-6.186-5.721-8.504c-2.512-2.313-5.492-3.183-8.945-4.179
		c-3.485-1.037-8.471-0.768-14.949-0.768h-21.909c-3.758,0-7.231,0.049-8.956,1.725c-1.724,1.678-3.319,3.683-3.319,7.594v67.652
		c0,3.516,0.432,7.351,2.008,9.167c1.569,1.815,5.146,3.025,7.717,3.025c2.452,0,4.41-1.569,6.021-3.403
		c1.611-1.835,1.254-5.354,1.254-8.905V54.602h17.185c10.468,0,18.345-2.799,23.635-7.41s7.936-11.633,7.936-20.573
		C191.055,22.425,190.4,18.405,189.1,15.052z M171.618,34.569c-1.418,1.998-3.479,4.138-6.182,5.014
		c-2.703,0.878-6.066,2.019-10.093,2.019H142.3v-27h13.044c7.63,0,12.67,0.684,15.126,3.279c2.184,2.433,3.277,5.281,3.277,9.152
		C173.747,30.267,173.036,32.574,171.618,34.569z"/>
	<path d="M98.789,47.135c-7.315,0-9.489-1.614-9.489-0.968V81.36c0,3.165,1.326,5.565,2.981,7.201
		c1.653,1.636,3.938,2.453,6.642,2.453c2.586,0,4.778-0.827,6.473-2.48c1.697-1.653,2.571-4.081,2.571-7.282
		c0,0,0.044-27.844,0.044-34.906C108.011,45.699,106.01,47.135,98.789,47.135z"/>
	<g>
		<ellipse style="fill:#E01F26;" cx="99.365" cy="21.207" rx="20.087" ry="20.036"/>
		<g>
			<path d="M78.155,21.157C78.155,9.482,87.637,0,99.365,0l0,0c11.724,0,21.208,9.482,21.208,21.157l0,0
				c0,11.676-9.484,21.158-21.208,21.158l0,0C87.637,42.315,78.155,32.833,78.155,21.157L78.155,21.157z M80.397,21.157
				c0,10.451,8.463,18.865,18.968,18.916l0,0c10.448,0,18.915-8.465,18.966-18.916l0,0c0-10.45-8.465-18.862-18.966-18.916l0,0
				C88.913,2.295,80.449,10.707,80.397,21.157L80.397,21.157z"/>
		</g>
		<g>
			<path style="fill:#231F20;" d="M76.289,36.503c-1.479,0-2.755-0.663-3.366-1.783c-0.354-0.664-0.816-2.09,0.408-3.927
				c0.817-1.224,1.632-2.5,2.448-3.721l0.713-1.073c1.174-1.782,2.346-3.568,3.518-5.352l0.969-1.479l1.581-2.447l1.579-2.447
				l0.153-0.254c0.867-1.376,2.191-3.415,4.843-3.415c0.867,0,3.722,0.303,3.722,4.332V15.6c0.563-0.764,1.074-1.527,1.634-2.344
				c1.12-1.58,2.854-2.549,4.485-2.549c1.02,0,1.988,0.407,2.703,1.072c0.561,0.559,1.274,1.63,1.224,3.463c0,2.755,0,5.506,0,8.208
				v3.212c0,0.204,0,0.36,0,0.562c0.051,1.173,0.153,3.109-1.479,4.385c-0.714,0.563-1.631,0.868-2.6,0.868
				c-0.763,0-1.53-0.205-2.142-0.611c-1.938-1.175-1.835-3.367-1.732-4.642c0-0.201,0-0.407,0-0.61V26.41l-2.397,3.517
				c-0.459,0.662-1.633,2.396-3.671,2.499c-0.104,0-0.153,0-0.256,0c-1.886,0-3.417-1.427-3.668-3.316
				c-0.053-0.561-0.104-1.174-0.104-1.732l-4.486,6.833C79.553,35.635,77.97,36.503,76.289,36.503L76.289,36.503z"/>
			<path style="fill:#FFFFFF;" d="M89.186,12.338c1.58,0,1.889,1.173,1.889,2.498c0,2.192,0,4.384,0,6.525
				c1.631-2.397,3.313-4.791,4.997-7.137c1.733-2.397,5.097-2.549,5.046,0.968c-0.05,3.824,0,7.646,0,11.47
				c0,1.173,0.306,2.705-0.716,3.467c-0.71,0.562-1.833,0.664-2.597,0.153c-1.225-0.764-0.867-2.447-0.867-3.669
				c0-2.04,0-4.13,0-6.169c-1.938,2.803-3.825,5.657-5.763,8.462c-0.563,0.814-1.223,1.631-2.294,1.733
				c-1.019,0.051-1.836-0.663-1.938-1.683c-0.305-2.547,0-5.252,0-7.8c-2.651,4.029-5.303,8.057-7.953,12.136
				c-1.581,2.395-6.015,1.528-4.027-1.531c1.069-1.633,2.09-3.213,3.159-4.844c1.48-2.295,3.01-4.591,4.487-6.832
				c1.069-1.631,2.144-3.263,3.213-4.894C86.587,13.918,87.453,12.338,89.186,12.338"/>
		</g>
		<g>
			<path style="fill:#231F20;" d="M104.484,38.645c-1.174,0-2.295-0.612-2.959-1.682c-0.714-1.071-0.816-2.447-0.306-3.621
				c0.509-1.119,1.12-2.191,1.683-3.11c0.865-1.479,2.854-4.995,3.465-6.271l-0.763-2.753l-2.091-7.597
				c-0.254-0.967,0.306-1.936,1.275-2.245l3.517-1.019c0.154-0.051,0.357-0.051,0.509-0.051c0.306,0,0.666,0.104,0.918,0.257
				c0.46,0.254,0.766,0.662,0.866,1.173l0.665,2.651c0.864-1.939,1.733-3.878,2.65-5.866c0.154-0.307,0.256-0.611,0.409-0.916
				c0.406-0.971,0.813-1.938,1.425-2.857c0.666-1.018,1.684-1.633,2.857-1.633s2.295,0.615,3.008,1.584
				c0.713,0.968,0.916,2.192,0.561,3.312c0,0.054-0.051,0.154-0.051,0.204l-4.691,10.403c-0.967,2.089-2.039,4.182-3.16,6.476
				c-0.154,0.255-0.357,0.66-0.612,1.17c-2.957,5.863-5.199,10.046-6.474,11.322C106.318,38.236,105.4,38.645,104.484,38.645
				L104.484,38.645z"/>
			<path style="fill:#FFFFFF;" d="M115.597,17.844c-1.021,2.143-2.042,4.281-3.11,6.373c-1.021,1.937-5.149,10.451-6.729,12.032
				c-1.53,1.531-3.567-0.409-2.804-2.193c0.458-1.018,1.02-1.986,1.58-2.905c0.204-0.357,3.927-6.729,3.772-7.14
				c-1.018-3.618-2.038-7.289-3.006-10.909l3.515-1.019l1.938,7.903c1.633-3.57,3.211-7.19,4.845-10.709
				c0.563-1.173,1.021-2.446,1.685-3.569c1.171-1.833,3.72-0.102,3.109,1.733L115.597,17.844"/>
		</g>
	</g>
</g>
</svg>
